HIERARCHY
ROOT Hips
{
 OFFSET 0.000000 0.000000 0.000000
 CHANNELS 6 Xposition Yposition Zposition Yrotation Xrotation Zrotation
 JOINT Chest
 {
  OFFSET 0.000000 9.585900 0.002600
  CHANNELS 3 Yrotation Xrotation Zrotation
  JOINT Chest2
  {
   OFFSET 0.000000 9.601200 -0.005300
   CHANNELS 3 Yrotation Xrotation Zrotation
   JOINT Chest3
   {
    OFFSET 0.000000 9.561800 0.000000
    CHANNELS 3 Yrotation Xrotation Zrotation
    JOINT Chest4
    {
     OFFSET 0.000000 9.552100 0.000000
     CHANNELS 3 Yrotation Xrotation Zrotation
     JOINT Neck
     {
      OFFSET 0.000000 14.453000 0.000000
      CHANNELS 3 Yrotation Xrotation Zrotation
      JOINT Head
      {
       OFFSET 0.000000 8.936500 -0.011300
       CHANNELS 3 Yrotation Xrotation Zrotation
       End Site
       {
        OFFSET 0.000000 17.073600 -0.006000
       }
      }
     }
     JOINT RightCollar
     {
      OFFSET -2.921100 9.558500 0.000000
      CHANNELS 3 Yrotation Xrotation Zrotation
      JOINT RightShoulder
      {
       OFFSET -13.519700 0.000000 0.000000
       CHANNELS 3 Yrotation Xrotation Zrotation
       JOINT RightElbow
       {
        OFFSET 0.000000 -29.696600 0.000000
        CHANNELS 3 Yrotation Xrotation Zrotation
        JOINT RightWrist
        {
         OFFSET 0.000000 -24.004700 0.000000
         CHANNELS 3 Yrotation Xrotation Zrotation
         End Site
         {
          OFFSET 0.000000 -17.728500 0.000000
         }
        }
       }
      }
     }
     JOINT LeftCollar
     {
      OFFSET 2.921100 9.558500 0.000000
      CHANNELS 3 Yrotation Xrotation Zrotation
      JOINT LeftShoulder
      {
       OFFSET 13.519700 0.000000 0.000000
       CHANNELS 3 Yrotation Xrotation Zrotation
       JOINT LeftElbow
       {
        OFFSET 0.000000 -29.696600 0.000000
        CHANNELS 3 Yrotation Xrotation Zrotation
        JOINT LeftWrist
        {
         OFFSET 0.000000 -24.004700 0.000000
         CHANNELS 3 Yrotation Xrotation Zrotation
         End Site
         {
          OFFSET 0.000000 -17.728500 0.000000
         }
        }
       }
      }
     }
    }
   }
  }
 }
 JOINT RightHip
 {
  OFFSET -7.771700 -0.012900 -0.001300
  CHANNELS 3 Yrotation Xrotation Zrotation
  JOINT RightKnee
  {
   OFFSET 0.000000 -40.869800 0.001200
   CHANNELS 3 Yrotation Xrotation Zrotation
   JOINT RightAnkle
   {
    OFFSET 0.000000 -39.717900 0.002100
    CHANNELS 3 Yrotation Xrotation Zrotation
    JOINT RightToe
    {
     OFFSET 0.000000 -4.965400 11.033500
     CHANNELS 3 Yrotation Xrotation Zrotation
     End Site
     {
      OFFSET 0.000000 -1.423100 5.872300
     }
    }
   }
  }
 }
 JOINT LeftHip
 {
  OFFSET 7.771700 -0.012900 -0.001300
  CHANNELS 3 Yrotation Xrotation Zrotation
  JOINT LeftKnee
  {
   OFFSET 0.000000 -40.869800 0.001200
   CHANNELS 3 Yrotation Xrotation Zrotation
   JOINT LeftAnkle
   {
    OFFSET 0.000000 -39.717900 0.002100
    CHANNELS 3 Yrotation Xrotation Zrotation
    JOINT LeftToe
    {
     OFFSET 0.000000 -4.965400 11.033500
     CHANNELS 3 Yrotation Xrotation Zrotation
     End Site
     {
      OFFSET 0.000000 -1.423100 5.872300
     }
    }
   }
  }
 }
}
MOTION
Frames: 9
Frame Time: 0.008333
11.815505 52.749590 41.036827 171.206421 -38.241963 -2.065139 3.534242 21.598188 2.258054 0.419839 2.993786 0.410055 0.749772 4.881409 0.678908 3.157353 18.344112 2.976827 1.820409 15.053861 -0.181059 3.457153 -7.826419 -1.004449 -4.948220 -1.541113 -2.314122 -4.567792 -1.602397 4.526812 -146.278302 -80.522105 160.889050 8.044769 15.545907 13.101306 -3.256899 0.484386 -0.417766 8.284190 -1.952064 2.450548 147.428320 -76.374020 -173.466517 -10.253754 8.083900 4.389008 -3.192083 -43.027114 4.003248 125.784609 85.952802 129.463655 -3.330884 -9.893519 -1.899338 0.578821 -0.557847 0.229383 1.101768 -39.562416 5.836339 73.826208 81.849655 64.206224 -6.616198 -12.016909 8.629250 0.589091 1.536716 0.303995
11.826753 52.736661 41.043658 171.220730 -38.243773 -2.059243 3.528625 21.604272 2.247203 0.434511 2.998480 0.409368 0.760008 4.895212 0.679001 3.132960 18.325668 2.977412 1.832991 15.070614 -0.182527 3.495260 -7.766602 -1.008043 -4.899458 -1.543011 -2.327205 -4.538673 -1.648739 4.509161 -146.387378 -80.593476 160.990253 8.392878 15.897234 13.948139 -3.239190 0.502567 -0.418355 8.286756 -2.029582 2.430981 146.094826 -76.540368 -172.174583 -10.340572 8.854310 3.586245 -3.209666 -43.023901 3.987581 125.696701 85.942183 129.388772 -3.329328 -9.880217 -1.915150 0.586366 -0.575898 0.225954 1.148913 -39.567019 5.839221 73.714081 81.871615 64.100785 -6.665370 -11.983529 8.649196 0.625177 1.517235 0.305815
11.833712 52.723163 41.048506 171.219166 -38.246709 -2.020865 3.525450 21.612882 2.211899 0.446339 3.005953 0.409584 0.753617 4.895805 0.679246 3.155625 18.339439 2.970897 1.857436 15.113336 -0.180760 3.498451 -7.755836 -0.998665 -4.876909 -1.568462 -2.322529 -4.503546 -1.689662 4.481006 -147.023184 -80.681342 161.616995 8.755164 16.200464 14.738769 -3.249557 0.495014 -0.405649 8.294555 -2.100674 2.415924 144.598108 -76.711021 -170.738392 -10.410264 9.551041 2.862819 -3.207254 -43.023246 3.939402 125.685586 85.929232 129.386324 -3.318422 -9.876362 -1.941654 0.592181 -0.585702 0.223576 1.187441 -39.563022 5.799484 73.658022 81.862553 64.027355 -6.624301 -11.969844 8.665287 0.581115 1.505139 0.288639
11.840125 52.708878 41.052614 171.230159 -38.245230 -1.994350 3.532668 21.629018 2.191765 0.472240 3.037825 0.412346 0.717812 4.862893 0.674817 3.185476 18.368769 2.967745 1.877522 15.149687 -0.182274 3.497628 -7.761037 -0.990913 -4.875335 -1.614603 -2.311198 -4.452785 -1.724165 4.439011 -148.042234 -80.772974 162.637357 9.128322 16.462551 15.457172 -3.269599 0.466549 -0.393677 8.301395 -2.166398 2.402088 142.842904 -76.884163 -169.061350 -10.456348 10.164395 2.238917 -3.205242 -43.025399 3.890268 125.744457 85.923075 129.461753 -3.306005 -9.879537 -1.973086 0.600425 -0.590464 0.229100 1.228904 -39.562958 5.776291 73.562058 81.869771 63.909847 -6.612612 -11.956156 8.686845 0.548093 1.498313 0.291293
11.847757 52.695276 41.054733 171.218639 -38.251827 -1.969296 3.562818 21.660306 2.187958 0.489172 3.059729 0.412306 0.708719 4.859529 0.673685 3.199372 18.386336 2.962419 1.892529 15.161154 -0.182091 3.503956 -7.761795 -0.986537 -4.855779 -1.681716 -2.295892 -4.413931 -1.747033 4.386224 -149.250549 -80.858490 163.859792 9.505944 16.686335 16.102136 -3.291603 0.422653 -0.376865 8.301752 -2.228135 2.382381 140.779187 -77.046878 -167.088005 -10.475452 10.706402 1.720288 -3.246011 -43.021370 3.873567 125.714998 85.900033 129.428379 -3.273961 -9.866642 -2.002670 0.587271 -0.610766 0.221420 1.265475 -39.556562 5.772996 73.493406 81.887166 63.835817 -6.627916 -11.948747 8.690279 0.560986 1.495593 0.298687
11.854670 52.683028 41.053965 171.180781 -38.270805 -1.931596 3.654382 21.734529 2.205076 0.469376 3.045482 0.408477 0.711229 4.869422 0.674346 3.272081 18.467266 2.956235 1.856887 15.098828 -0.163187 3.475385 -7.805448 -0.968450 -4.878068 -1.827834 -2.254942 -4.387544 -1.756244 4.329670 -150.458608 -80.930309 165.091904 9.882231 16.882581 16.689949 -3.377979 0.303529 -0.328180 8.290261 -2.283270 2.355080 138.423766 -77.183107 -164.821052 -10.472655 11.186797 1.290047 -3.279327 -43.008298 3.862631 125.704118 85.866562 129.404767 -3.220668 -9.856129 -2.017416 0.547480 -0.631663 0.206074 1.317655 -39.534834 5.780885 73.433412 81.888291 63.748057 -6.612464 -11.907861 8.730536 0.529427 1.456488 0.273326
11.857447 52.668759 41.054400 171.176140 -38.265707 -1.901032 3.688503 21.766269 2.193928 0.473048 3.055182 0.409033 0.753743 4.926165 0.673855 3.277663 18.463805 2.951466 1.844376 15.073034 -0.152151 3.445163 -7.849997 -0.949649 -4.922508 -1.934683 -2.220309 -4.308290 -1.762705 4.268352 -151.534978 -80.986948 166.202081 10.246918 17.067716 17.234727 -3.445097 0.219111 -0.284134 8.265182 -2.331780 2.320041 135.891108 -77.288368 -162.366242 -10.450578 11.604125 0.928927 -3.316642 -43.018516 3.834877 125.704289 85.837255 129.391145 -3.190074 -9.848620 -2.045517 0.531201 -0.647739 0.205421 1.350835 -39.538733 5.768697 73.371912 81.904415 63.668998 -6.635310 -11.896883 8.743001 0.540302 1.450847 0.276456
11.860947 52.654781 41.054384 171.167003 -38.257060 -1.880004 3.700169 21.767874 2.182012 0.500738 3.091214 0.414362 0.773473 4.954878 0.673688 3.285522 18.468303 2.947904 1.846789 15.068540 -0.149168 3.447678 -7.858453 -0.944149 -4.890217 -2.029409 -2.211279 -4.279680 -1.748308 4.218556 -152.379297 -81.032418 167.089463 10.591066 17.248152 17.746779 -3.495727 0.157469 -0.249448 8.246392 -2.364426 2.293931 133.343717 -77.343514 -159.906623 -10.409803 11.963972 0.627542 -3.329279 -43.031328 3.821171 125.749721 85.820019 129.427383 -3.168220 -9.846487 -2.055046 0.513317 -0.656169 0.203492 1.369311 -39.548128 5.768644 73.343999 81.921678 63.627007 -6.648185 -11.893321 8.749543 0.533366 1.448263 0.276809
11.864416 52.642870 41.051784 171.155734 -38.260834 -1.861601 3.739759 21.807916 2.189733 0.486735 3.076674 0.411118 0.795248 4.989692 0.676592 3.303199 18.488218 2.945396 1.850116 15.064022 -0.148001 3.500870 -7.811981 -0.959420 -4.849745 -2.121625 -2.213434 -4.251730 -1.726260 4.175409 -152.912340 -81.071214 167.672289 10.909173 17.420625 18.236564 -3.542156 0.093480 -0.223117 8.225712 -2.391266 2.271191 130.970005 -77.373805 -157.616400 -10.360053 12.276441 0.371794 -3.392163 -43.030278 3.824657 125.819848 85.795473 129.472596 -3.132216 -9.834601 -2.079427 0.498930 -0.678206 0.191174 1.368145 -39.539909 5.799062 73.297257 81.953652 63.547341 -6.684044 -11.888849 8.751293 0.585703 1.444030 0.292713
